<svg xmlns="http://www.w3.org/2000/svg" version="1.1" xmlns:xlink="http://www.w3.org/1999/xlink" xmlns:svgjs="http://svgjs.dev/svgjs" width="2000" height="1500" viewBox="0 0 2000 1500"><rect width="2000" height="1500" fill="#ff851b"></rect><g transform="matrix(0.75,0,0,0.75,249.090909090909,282.7536437246963)"><svg viewBox="0 0 396 247" data-background-color="#ff851b" preserveAspectRatio="xMidYMid meet" height="1247" width="2000" xmlns="http://www.w3.org/2000/svg" xmlns:xlink="http://www.w3.org/1999/xlink"><g id="tight-bounds" transform="matrix(1,0,0,1,0.2400000000000091,-0.09999999999999432)"><svg viewBox="0 0 395.52 247.2" height="247.2" width="395.52"><g><svg></svg></g><g><svg viewBox="0 0 395.52 247.2" height="247.2" width="395.52"><mask id="1e3533ed-c031-42f9-9ff4-d3223c1292da"><rect width="395.52" height="247.2" fill="white"></rect><g transform="matrix(1,0,0,1,0,82.00438399695831)" id="clone"><svg viewBox="0 0 395.52 83.19123200608337" height="83.19123200608337" width="395.52"><g><svg viewBox="0 0 395.52 83.19123200608337" height="83.19123200608337" width="395.52"><g><svg viewBox="0 0 506.32257757982995 106.4967612797375" height="83.19123200608337" width="395.52"><g transform="matrix(1,0,0,1,0,33.98340935192782)"><svg viewBox="0 0 395.52 38.52994257588187" height="38.52994257588187" width="395.52"><g id="SvgjsG1007"><svg viewBox="0 0 395.52 38.52994257588187" height="38.52994257588187" width="395.52" id="SvgjsSvg1006"><g><svg viewBox="0 0 395.52 38.52994257588187" height="38.52994257588187" width="395.52"><g transform="matrix(1,0,0,1,0,0)"><svg width="395.52" viewBox="-1.75 -42.5 488.55 48.5" height="38.52994257588187" data-palette-color="#ffffff"><path d="M10-31.95L10-3.05Q10-1.75 9.05-0.88 8.1 0 6.85 0L6.85 0Q5.45 0 4.6-0.88 3.75-1.75 3.75-3.05L3.75-3.05 3.75-31.95Q3.75-33.25 4.65-34.13 5.55-35 6.95-35L6.95-35Q8.15-35 9.08-34.13 10-33.25 10-31.95L10-31.95ZM23.75-31.95L23.75-3.05Q23.75-1.75 22.8-0.88 21.85 0 20.6 0L20.6 0Q19.2 0 18.35-0.88 17.5-1.75 17.5-3.05L17.5-3.05 17.5-31.95Q17.5-33.25 18.4-34.13 19.3-35 20.7-35L20.7-35Q21.9-35 22.82-34.13 23.75-33.25 23.75-31.95L23.75-31.95ZM43.09 0L43.09 0Q41.7 0 40.8-0.88 39.9-1.75 39.9-3.05L39.9-3.05 39.9-32.05 46.4-32.05 46.4-3.05Q46.4-1.75 45.47-0.88 44.55 0 43.09 0ZM54.25-29.25L32.05-29.25Q30.75-29.25 29.87-30.05 29-30.85 29-32.15L29-32.15Q29-33.45 29.87-34.23 30.75-35 32.05-35L32.05-35 54.25-35Q55.55-35 56.42-34.2 57.3-33.4 57.3-32.1L57.3-32.1Q57.3-30.8 56.42-30.03 55.55-29.25 54.25-29.25L54.25-29.25ZM65.74-35L65.74-35Q66.94-35 67.87-34.13 68.79-33.25 68.79-31.95L68.79-31.95 68.79-3.05Q68.79-1.75 67.84-0.88 66.89 0 65.64 0L65.64 0Q64.24 0 63.39-0.88 62.54-1.75 62.54-3.05L62.54-3.05 62.54-31.95Q62.54-33.25 63.44-34.13 64.34-35 65.74-35ZM87.89-35L87.89-35Q89.29-35 90.14-34.13 90.99-33.25 90.99-31.95L90.99-31.95 90.99-3.05Q90.99-1.75 90.12-0.88 89.24 0 87.79 0L87.79 0Q86.59 0 85.67-0.88 84.74-1.75 84.74-3.05L84.74-3.05 84.74-31.95Q84.74-33.25 85.69-34.13 86.64-35 87.89-35ZM65.59-14.7L65.59-20.45 87.89-20.45 87.89-14.7 65.59-14.7ZM96.44-22.1L97.24-32.6Q97.49-35 99.84-35L99.84-35 101.39-35Q102.79-35 103.34-34.23 103.89-33.45 103.44-32.15L103.44-32.15 100.04-21.7Q99.44-20.05 97.89-20.05L97.89-20.05Q96.29-20.05 96.44-22.1L96.44-22.1ZM107.04-4.15L107.04-4.15Q106.54-4.85 106.59-5.95 106.64-7.05 107.89-7.85L107.89-7.85Q108.69-8.35 109.59-8.28 110.49-8.2 111.34-7.35L111.34-7.35Q112.79-5.9 114.39-5.1 115.99-4.3 118.39-4.3L118.39-4.3Q119.14-4.35 120.04-4.53 120.94-4.7 121.61-5.33 122.29-5.95 122.29-7.25L122.29-7.25Q122.29-8.35 121.54-9 120.79-9.65 119.56-10.1 118.34-10.55 116.84-10.95L116.84-10.95Q115.29-11.4 113.66-11.95 112.04-12.5 110.69-13.38 109.34-14.25 108.49-15.7 107.64-17.15 107.64-19.35L107.64-19.35Q107.64-21.85 109.04-23.6 110.44-25.35 112.66-26.3 114.89-27.25 117.34-27.25L117.34-27.25Q118.89-27.25 120.59-26.88 122.29-26.5 123.84-25.68 125.39-24.85 126.44-23.5L126.44-23.5Q126.99-22.75 127.09-21.7 127.19-20.65 126.14-19.8L126.14-19.8Q125.39-19.2 124.39-19.28 123.39-19.35 122.74-19.95L122.74-19.95Q121.89-21.05 120.46-21.7 119.04-22.35 117.19-22.35L117.19-22.35Q116.44-22.35 115.56-22.18 114.69-22 114.04-21.43 113.39-20.85 113.39-19.6L113.39-19.6Q113.39-18.45 114.14-17.78 114.89-17.1 116.16-16.68 117.44-16.25 118.89-15.85L118.89-15.85Q120.39-15.45 121.94-14.9 123.49-14.35 124.79-13.45 126.09-12.55 126.89-11.13 127.69-9.7 127.69-7.5L127.69-7.5Q127.69-4.95 126.19-3.15 124.69-1.35 122.44-0.43 120.19 0.5 117.84 0.5L117.84 0.5Q114.89 0.5 111.94-0.53 108.99-1.55 107.04-4.15ZM159.03 0L159.03 0Q157.63 0 156.73-0.88 155.83-1.75 155.83-3.05L155.83-3.05 155.83-32.05 162.33-32.05 162.33-3.05Q162.33-1.75 161.41-0.88 160.48 0 159.03 0ZM170.18-29.25L147.98-29.25Q146.68-29.25 145.81-30.05 144.93-30.85 144.93-32.15L144.93-32.15Q144.93-33.45 145.81-34.23 146.68-35 147.98-35L147.98-35 170.18-35Q171.48-35 172.36-34.2 173.23-33.4 173.23-32.1L173.23-32.1Q173.23-30.8 172.36-30.03 171.48-29.25 170.18-29.25L170.18-29.25ZM183.63-23.7L183.63-3.05Q183.63-1.75 182.78-0.88 181.93 0 180.63 0L180.63 0Q179.33 0 178.48-0.88 177.63-1.75 177.63-3.05L177.63-3.05 177.63-23.7Q177.63-25 178.48-25.88 179.33-26.75 180.63-26.75L180.63-26.75Q181.93-26.75 182.78-25.88 183.63-25 183.63-23.7L183.63-23.7ZM180.58-30L180.58-30Q178.88-30 178.18-30.55 177.48-31.1 177.48-32.5L177.48-32.5 177.48-33.45Q177.48-34.9 178.26-35.43 179.03-35.95 180.63-35.95L180.63-35.95Q182.38-35.95 183.08-35.4 183.78-34.85 183.78-33.45L183.78-33.45 183.78-32.5Q183.78-31.05 183.03-30.53 182.28-30 180.58-30ZM204.08-27.25L204.08-27.25Q207.78-27.25 209.7-25.7 211.63-24.15 212.35-21.58 213.08-19 213.08-15.85L213.08-15.85 213.08-3.05Q213.08-1.75 212.23-0.88 211.38 0 210.08 0L210.08 0Q208.78 0 207.93-0.88 207.08-1.75 207.08-3.05L207.08-3.05 207.08-15.85Q207.08-17.5 206.65-18.82 206.23-20.15 205.13-20.95 204.03-21.75 201.98-21.75L201.98-21.75Q199.98-21.75 198.6-20.95 197.23-20.15 196.5-18.82 195.78-17.5 195.78-15.85L195.78-15.85 195.78-3.05Q195.78-1.75 194.93-0.88 194.08 0 192.78 0L192.78 0Q191.48 0 190.63-0.88 189.78-1.75 189.78-3.05L189.78-3.05 189.78-23.7Q189.78-25 190.63-25.88 191.48-26.75 192.78-26.75L192.78-26.75Q194.08-26.75 194.93-25.88 195.78-25 195.78-23.7L195.78-23.7 195.78-21.55 195.03-21.7Q195.48-22.55 196.33-23.53 197.18-24.5 198.33-25.35 199.48-26.2 200.93-26.73 202.38-27.25 204.08-27.25ZM223.08 0L223.08 0Q221.78 0 220.93-0.88 220.08-1.75 220.08-3.05L220.08-3.05 220.08-33.95Q220.08-35.25 220.93-36.13 221.78-37 223.08-37L223.08-37Q224.38-37 225.23-36.13 226.08-35.25 226.08-33.95L226.08-33.95 226.08-3.05Q226.08-1.75 225.23-0.88 224.38 0 223.08 0ZM238.98-26.75L238.98-26.75Q240.13-26.75 240.98-25.8 241.83-24.85 241.83-23.95L241.83-23.95Q241.83-22.75 240.63-21.7L240.63-21.7 225.58-7.85 225.33-14.75 236.78-25.8Q237.73-26.75 238.98-26.75ZM239.73-0.05L239.73-0.05Q238.43-0.05 237.53-1.05L237.53-1.05 228.28-10.85 232.83-15.05 241.83-5.25Q242.78-4.25 242.78-3L242.78-3Q242.78-1.7 241.75-0.88 240.73-0.05 239.73-0.05ZM259.27 0.5L259.27 0.5Q255.02 0.5 251.9-1.28 248.77-3.05 247.1-6.1 245.42-9.15 245.42-13L245.42-13Q245.42-17.5 247.25-20.68 249.07-23.85 252.02-25.55 254.97-27.25 258.27-27.25L258.27-27.25Q260.82-27.25 263.1-26.2 265.37-25.15 267.12-23.33 268.87-21.5 269.9-19.1 270.92-16.7 270.92-14L270.92-14Q270.87-12.8 269.97-12.05 269.07-11.3 267.87-11.3L267.87-11.3 248.77-11.3 247.27-16.3 265.62-16.3 264.52-15.3 264.52-16.65Q264.42-18.1 263.5-19.25 262.57-20.4 261.2-21.08 259.82-21.75 258.27-21.75L258.27-21.75Q256.77-21.75 255.47-21.35 254.17-20.95 253.22-20 252.27-19.05 251.72-17.45 251.17-15.85 251.17-13.4L251.17-13.4Q251.17-10.7 252.3-8.83 253.42-6.95 255.2-5.98 256.97-5 258.97-5L258.97-5Q260.82-5 261.92-5.3 263.02-5.6 263.7-6.03 264.37-6.45 264.92-6.75L264.92-6.75Q265.82-7.2 266.62-7.2L266.62-7.2Q267.72-7.2 268.45-6.45 269.17-5.7 269.17-4.7L269.17-4.7Q269.17-3.35 267.77-2.25L267.77-2.25Q266.47-1.15 264.12-0.33 261.77 0.5 259.27 0.5ZM278.92 0L278.92 0Q277.62 0 276.77-0.88 275.92-1.75 275.92-3.05L275.92-3.05 275.92-23.7Q275.92-25 276.77-25.88 277.62-26.75 278.92-26.75L278.92-26.75Q280.22-26.75 281.07-25.88 281.92-25 281.92-23.7L281.92-23.7 281.92-19 281.57-22.35Q282.12-23.55 283-24.48 283.87-25.4 284.97-26.03 286.07-26.65 287.32-26.95 288.57-27.25 289.82-27.25L289.82-27.25Q291.32-27.25 292.35-26.4 293.37-25.55 293.37-24.4L293.37-24.4Q293.37-22.75 292.52-22.03 291.67-21.3 290.67-21.3L290.67-21.3Q289.72-21.3 288.94-21.65 288.17-22 287.17-22L287.17-22Q286.27-22 285.35-21.58 284.42-21.15 283.65-20.25 282.87-19.35 282.4-18.03 281.92-16.7 281.92-14.9L281.92-14.9 281.92-3.05Q281.92-1.75 281.07-0.88 280.22 0 278.92 0ZM308.87 0.5L308.87 0.5Q304.62 0.5 301.49-1.28 298.37-3.05 296.69-6.1 295.02-9.15 295.02-13L295.02-13Q295.02-17.5 296.84-20.68 298.67-23.85 301.62-25.55 304.57-27.25 307.87-27.25L307.87-27.25Q310.42-27.25 312.69-26.2 314.97-25.15 316.72-23.33 318.47-21.5 319.49-19.1 320.52-16.7 320.52-14L320.52-14Q320.47-12.8 319.57-12.05 318.67-11.3 317.47-11.3L317.47-11.3 298.37-11.3 296.87-16.3 315.22-16.3 314.12-15.3 314.12-16.65Q314.02-18.1 313.09-19.25 312.17-20.4 310.79-21.08 309.42-21.75 307.87-21.75L307.87-21.75Q306.37-21.75 305.07-21.35 303.77-20.95 302.82-20 301.87-19.05 301.32-17.45 300.77-15.85 300.77-13.4L300.77-13.4Q300.77-10.7 301.89-8.83 303.02-6.95 304.79-5.98 306.57-5 308.57-5L308.57-5Q310.42-5 311.52-5.3 312.62-5.6 313.29-6.03 313.97-6.45 314.52-6.75L314.52-6.75Q315.42-7.2 316.22-7.2L316.22-7.2Q317.32-7.2 318.04-6.45 318.77-5.7 318.77-4.7L318.77-4.7Q318.77-3.35 317.37-2.25L317.37-2.25Q316.07-1.15 313.72-0.33 311.37 0.5 308.87 0.5ZM328.51 0L328.51 0Q327.21 0 326.37-0.88 325.51-1.75 325.51-3.05L325.51-3.05 325.51-23.7Q325.51-25 326.37-25.88 327.21-26.75 328.51-26.75L328.51-26.75Q329.81-26.75 330.66-25.88 331.51-25 331.51-23.7L331.51-23.7 331.51-19 331.16-22.35Q331.71-23.55 332.59-24.48 333.46-25.4 334.56-26.03 335.66-26.65 336.91-26.95 338.16-27.25 339.41-27.25L339.41-27.25Q340.91-27.25 341.94-26.4 342.96-25.55 342.96-24.4L342.96-24.4Q342.96-22.75 342.12-22.03 341.26-21.3 340.26-21.3L340.26-21.3Q339.31-21.3 338.54-21.65 337.76-22 336.76-22L336.76-22Q335.87-22 334.94-21.58 334.01-21.15 333.24-20.25 332.46-19.35 331.99-18.03 331.51-16.7 331.51-14.9L331.51-14.9 331.51-3.05Q331.51-1.75 330.66-0.88 329.81 0 328.51 0ZM345.66-22.1L346.46-32.6Q346.71-35 349.06-35L349.06-35 350.61-35Q352.01-35 352.56-34.23 353.11-33.45 352.66-32.15L352.66-32.15 349.26-21.7Q348.66-20.05 347.11-20.05L347.11-20.05Q345.51-20.05 345.66-22.1L345.66-22.1ZM356.26-4.15L356.26-4.15Q355.76-4.85 355.81-5.95 355.86-7.05 357.11-7.85L357.11-7.85Q357.91-8.35 358.81-8.28 359.71-8.2 360.56-7.35L360.56-7.35Q362.01-5.9 363.61-5.1 365.21-4.3 367.61-4.3L367.61-4.3Q368.36-4.35 369.26-4.53 370.16-4.7 370.83-5.33 371.51-5.95 371.51-7.25L371.51-7.25Q371.51-8.35 370.76-9 370.01-9.65 368.79-10.1 367.56-10.55 366.06-10.95L366.06-10.95Q364.51-11.4 362.88-11.95 361.26-12.5 359.91-13.38 358.56-14.25 357.71-15.7 356.86-17.15 356.86-19.35L356.86-19.35Q356.86-21.85 358.26-23.6 359.66-25.35 361.88-26.3 364.11-27.25 366.56-27.25L366.56-27.25Q368.11-27.25 369.81-26.88 371.51-26.5 373.06-25.68 374.61-24.85 375.66-23.5L375.66-23.5Q376.21-22.75 376.31-21.7 376.41-20.65 375.36-19.8L375.36-19.8Q374.61-19.2 373.61-19.28 372.61-19.35 371.96-19.95L371.96-19.95Q371.11-21.05 369.69-21.7 368.26-22.35 366.41-22.35L366.41-22.35Q365.66-22.35 364.79-22.18 363.91-22 363.26-21.43 362.61-20.85 362.61-19.6L362.61-19.6Q362.61-18.45 363.36-17.78 364.11-17.1 365.38-16.68 366.66-16.25 368.11-15.85L368.11-15.85Q369.61-15.45 371.16-14.9 372.71-14.35 374.01-13.45 375.31-12.55 376.11-11.13 376.91-9.7 376.91-7.5L376.91-7.5Q376.91-4.95 375.41-3.15 373.91-1.35 371.66-0.43 369.41 0.5 367.06 0.5L367.06 0.5Q364.11 0.5 361.16-0.53 358.21-1.55 356.26-4.15ZM401.56-5.85L415.71-5.85Q417.01-5.85 417.88-5.03 418.76-4.2 418.76-2.9L418.76-2.9Q418.76-1.65 417.88-0.83 417.01 0 415.71 0L415.71 0 399.46 0Q398.16 0 397.28-0.88 396.41-1.75 396.41-3.05L396.41-3.05 396.41-31.95Q396.41-33.25 397.31-34.13 398.21-35 399.61-35L399.61-35Q400.81-35 401.73-34.13 402.66-33.25 402.66-31.95L402.66-31.95 402.66-5 401.56-5.85ZM445.65-27.25L445.65-27.25Q446.95-27.25 447.8-26.4 448.65-25.55 448.65-24.2L448.65-24.2 448.65-3.05Q448.65-1.75 447.8-0.88 446.95 0 445.65 0L445.65 0Q444.35 0 443.5-0.88 442.65-1.75 442.65-3.05L442.65-3.05 442.65-5.5 443.75-5.05Q443.75-4.4 443.05-3.48 442.35-2.55 441.15-1.65 439.95-0.75 438.33-0.13 436.7 0.5 434.8 0.5L434.8 0.5Q431.35 0.5 428.55-1.28 425.75-3.05 424.13-6.18 422.5-9.3 422.5-13.35L422.5-13.35Q422.5-17.45 424.13-20.58 425.75-23.7 428.5-25.48 431.25-27.25 434.6-27.25L434.6-27.25Q436.75-27.25 438.55-26.6 440.35-25.95 441.68-24.95 443-23.95 443.73-22.93 444.45-21.9 444.45-21.2L444.45-21.2 442.65-20.55 442.65-24.2Q442.65-25.5 443.5-26.38 444.35-27.25 445.65-27.25ZM435.55-5L435.55-5Q437.75-5 439.4-6.1 441.05-7.2 441.98-9.1 442.9-11 442.9-13.35L442.9-13.35Q442.9-15.75 441.98-17.65 441.05-19.55 439.4-20.65 437.75-21.75 435.55-21.75L435.55-21.75Q433.4-21.75 431.75-20.65 430.1-19.55 429.18-17.65 428.25-15.75 428.25-13.35L428.25-13.35Q428.25-11 429.18-9.1 430.1-7.2 431.75-6.1 433.4-5 435.55-5ZM469-27.25L469-27.25Q472.5-27.25 475.28-25.48 478.05-23.7 479.68-20.6 481.3-17.5 481.3-13.4L481.3-13.4Q481.3-9.3 479.68-6.18 478.05-3.05 475.33-1.28 472.6 0.5 469.2 0.5L469.2 0.5Q467.2 0.5 465.45-0.15 463.7-0.8 462.38-1.8 461.05-2.8 460.33-3.83 459.6-4.85 459.6-5.55L459.6-5.55 461.15-6.2 461.15-2.55Q461.15-1.25 460.3-0.38 459.45 0.5 458.15 0.5L458.15 0.5Q456.85 0.5 456-0.35 455.15-1.2 455.15-2.55L455.15-2.55 455.15-33.95Q455.15-35.25 456-36.13 456.85-37 458.15-37L458.15-37Q459.45-37 460.3-36.13 461.15-35.25 461.15-33.95L461.15-33.95 461.15-21.25 460.3-21.7Q460.3-22.35 461-23.28 461.7-24.2 462.9-25.13 464.1-26.05 465.68-26.65 467.25-27.25 469-27.25ZM468.25-21.75L468.25-21.75Q466.05-21.75 464.4-20.65 462.75-19.55 461.83-17.68 460.9-15.8 460.9-13.4L460.9-13.4Q460.9-11.05 461.83-9.13 462.75-7.2 464.4-6.1 466.05-5 468.25-5L468.25-5Q470.45-5 472.08-6.1 473.7-7.2 474.63-9.13 475.55-11.05 475.55-13.4L475.55-13.4Q475.55-15.8 474.63-17.68 473.7-19.55 472.08-20.65 470.45-21.75 468.25-21.75Z" opacity="1" transform="matrix(1,0,0,1,0,0)" fill="black" class="wordmark-text-0" id="SvgjsPath1005" stroke-width="10" stroke="black" stroke-linejoin="round"></path></svg></g></svg></g></svg></g></svg></g><g transform="matrix(1,0,0,1,399.95877105824445,0)"><svg viewBox="0 0 106.36380652158552 106.4967612797375" height="106.4967612797375" width="106.36380652158552"><g><svg xmlns="http://www.w3.org/2000/svg" xmlns:xlink="http://www.w3.org/1999/xlink" version="1.1" x="0" y="0" viewBox="4.3999999999999915 4.899999999999999 80 80.1" enable-background="new 0 0 90 90" xml:space="preserve" height="106.4967612797375" width="106.36380652158552" class="icon-icon-0" data-fill-palette-color="accent" id="SvgjsSvg1004"><path d="M81.6 59.6c0-0.1 0-0.1 0.1-0.2 1.6-4.2 2.6-8.8 2.7-13.6 0 0 0 0 0 0l0 0c0-0.3 0-0.6 0-0.9 0-22.1-17.9-40-40-40s-40 17.9-40 40c0 4.6 0.8 9 2.2 13.1l0 0c0 0 0 0 0 0C12 73.7 26.9 85 44.4 85c16.1 0 30-9.6 36.4-23.3 0-0.1 0.1-0.1 0.1-0.2C81.1 60.9 81.4 60.3 81.6 59.6zM77.9 45.9v-1.1h-1.1v1.1h-2.5v-1.1h-1.1v1.1h-2.5v-1.1h-1.1v1.1h-2.9v2.9H48.4v-4.7H56 57V43v-2.6c0.7-0.2 1.3-0.7 1.6-1.4h17.9c0.3 1.2 1.3 2.2 2.5 2.4 0.1 1.2 0.2 2.3 0.2 3.5 0 0.3 0 0.6 0 0.9H77.9zM44.4 10.1c15.9 0 29.3 10.7 33.5 25.2-0.1 0.1-0.2 0.1-0.3 0.2l-6.9-6.7v-0.3h-0.3l0 0 0 0H48.8V22h-5.4v6.5h-2.5V22h-5.4v6.5h-2.5V22h-5.4v6.5h-5.1c-0.2-1-1.2-1.8-2.3-1.8-1.3 0-2.3 1.1-2.3 2.4 0 1.1 0.8 2 1.8 2.3v2.2 1.1h1.1 18.8c0.2 1 1.2 1.8 2.3 1.8 1.3 0 2.3-1.1 2.3-2.4s-1-2.4-2.3-2.4c-1.1 0-2 0.8-2.3 1.8H20.7v-2.2c0.9-0.2 1.5-0.9 1.7-1.7h31.4V32h13.3v-2.4H70l7 6.7c-0.3 0.5-0.5 1-0.5 1.6H58.8c-0.1-1.2-1.1-2.2-2.3-2.2-1.3 0-2.3 1.1-2.3 2.4 0 1.1 0.8 2 1.8 2.3V43H38.3c-0.3-3.6-3.3-6.5-7-6.5-3.7 0-6.7 2.9-7 6.5h-1.8v-1.4-0.4-0.7h-3.6v-1.8h-8.6v4h8.6v-1.1h2.5V43v1.1 1.8h-2.5v-1.1h-8.6v4h8.6V47h3.6v-1.1-1.8h1.8c0.3 3.6 3.3 6.5 7 6.5 3.7 0 6.7-2.9 7-6.5h9v4.7 1.1h1.1 18.3v4.3H44.1C44 52.4 42.5 51 40.7 51c-1.8 0-3.3 1.4-3.4 3.2H23.9c-0.2-1-1.2-1.8-2.3-1.8-1.3 0-2.3 1.1-2.3 2.4s1 2.4 2.3 2.4c1.1 0 2-0.8 2.3-1.8h13.5c0.4 1.5 1.7 2.5 3.3 2.5 1.6 0 2.9-1.1 3.3-2.5h7v2h2.5v-2h13.3v4.3h-54c-2.1-4.5-3.2-9.4-3.2-14.7C9.5 25.7 25.1 10.1 44.4 10.1zM44.4 79.9c-13.6 0-25.4-7.8-31.1-19.2h29.4v6.4H48v-6.4h2.2v6.4h5.4v-6.4h2.2v6.4h5.4v-6.4h3.6v2.9h2.9v1.1h1.1v-1.1h2.5v1C66.9 73.8 56.4 79.9 44.4 79.9z" fill="black" stroke-width="10" stroke="black" stroke-linejoin="round"></path></svg></g></svg></g></svg></g></svg></g></svg></g></mask><g mask="url(#1e3533ed-c031-42f9-9ff4-d3223c1292da)"><g><path transform="translate(-20.89466,225.77507) scale(5.83858,5.83858)" d="M10-31.95v28.9c0 0.867-0.317 1.59-0.95 2.17-0.633 0.587-1.367 0.88-2.2 0.88v0c-0.933 0-1.683-0.293-2.25-0.88-0.567-0.58-0.85-1.303-0.85-2.17v0-28.9c0-0.867 0.3-1.593 0.9-2.18 0.6-0.58 1.367-0.87 2.3-0.87v0c0.8 0 1.51 0.29 2.13 0.87 0.613 0.587 0.92 1.313 0.92 2.18zM29.35 0v0c-0.933 0-1.7-0.293-2.3-0.88-0.6-0.58-0.9-1.303-0.9-2.17v0-29h6.5v29c0 0.867-0.307 1.59-0.92 2.17-0.62 0.587-1.413 0.88-2.38 0.88zM40.5-29.25h-22.2c-0.867 0-1.59-0.267-2.17-0.8-0.587-0.533-0.88-1.233-0.88-2.1v0c0-0.867 0.293-1.56 0.88-2.08 0.58-0.513 1.303-0.77 2.17-0.77v0h22.2c0.867 0 1.59 0.267 2.17 0.8 0.587 0.533 0.88 1.233 0.88 2.1v0c0 0.867-0.293 1.557-0.88 2.07-0.58 0.52-1.303 0.78-2.17 0.78zM53.95-5.85h14.15c0.867 0 1.593 0.273 2.18 0.82 0.58 0.553 0.87 1.263 0.87 2.13v0c0 0.833-0.29 1.523-0.87 2.07-0.587 0.553-1.313 0.83-2.18 0.83v0h-16.25c-0.867 0-1.593-0.293-2.18-0.88-0.58-0.58-0.87-1.303-0.87-2.17v0-28.9c0-0.867 0.3-1.593 0.9-2.18 0.6-0.58 1.367-0.87 2.3-0.87v0c0.8 0 1.51 0.29 2.13 0.87 0.613 0.587 0.92 1.313 0.92 2.18v0 26.95z" fill="#111111" fill-rule="nonzero" stroke="none" stroke-width="1" stroke-linecap="butt" stroke-linejoin="miter" stroke-miterlimit="10" stroke-dasharray="" stroke-dashoffset="0" font-family="none" font-weight="none" font-size="none" text-anchor="none" style="mix-blend-mode: normal" data-fill-palette-color="tertiary"></path></g></g><g transform="matrix(1,0,0,1,0,82.00438399695831)"><svg viewBox="0 0 395.52 83.19123200608337" height="83.19123200608337" width="395.52"><g><svg viewBox="0 0 395.52 83.19123200608337" height="83.19123200608337" width="395.52"><g><svg viewBox="0 0 506.32257757982995 106.4967612797375" height="83.19123200608337" width="395.52"><g transform="matrix(1,0,0,1,0,33.98340935192782)"><svg viewBox="0 0 395.52 38.52994257588187" height="38.52994257588187" width="395.52"><g id="textblocktransform"><svg viewBox="0 0 395.52 38.52994257588187" height="38.52994257588187" width="395.52" id="textblock"><g><svg viewBox="0 0 395.52 38.52994257588187" height="38.52994257588187" width="395.52"><g transform="matrix(1,0,0,1,0,0)"><svg width="395.52" viewBox="-1.75 -42.5 488.55 48.5" height="38.52994257588187" data-palette-color="#ffffff"><path d="M10-31.95L10-3.05Q10-1.75 9.05-0.88 8.1 0 6.85 0L6.85 0Q5.45 0 4.6-0.88 3.75-1.75 3.75-3.05L3.75-3.05 3.75-31.95Q3.75-33.25 4.65-34.13 5.55-35 6.95-35L6.95-35Q8.15-35 9.08-34.13 10-33.25 10-31.95L10-31.95ZM23.75-31.95L23.75-3.05Q23.75-1.75 22.8-0.88 21.85 0 20.6 0L20.6 0Q19.2 0 18.35-0.88 17.5-1.75 17.5-3.05L17.5-3.05 17.5-31.95Q17.5-33.25 18.4-34.13 19.3-35 20.7-35L20.7-35Q21.9-35 22.82-34.13 23.75-33.25 23.75-31.95L23.75-31.95ZM43.09 0L43.09 0Q41.7 0 40.8-0.88 39.9-1.75 39.9-3.05L39.9-3.05 39.9-32.05 46.4-32.05 46.4-3.05Q46.4-1.75 45.47-0.88 44.55 0 43.09 0ZM54.25-29.25L32.05-29.25Q30.75-29.25 29.87-30.05 29-30.85 29-32.15L29-32.15Q29-33.45 29.87-34.23 30.75-35 32.05-35L32.05-35 54.25-35Q55.55-35 56.42-34.2 57.3-33.4 57.3-32.1L57.3-32.1Q57.3-30.8 56.42-30.03 55.55-29.25 54.25-29.25L54.25-29.25ZM65.74-35L65.74-35Q66.94-35 67.87-34.13 68.79-33.25 68.79-31.95L68.79-31.95 68.79-3.05Q68.79-1.75 67.84-0.88 66.89 0 65.64 0L65.64 0Q64.24 0 63.39-0.88 62.54-1.75 62.54-3.05L62.54-3.05 62.54-31.95Q62.54-33.25 63.44-34.13 64.34-35 65.74-35ZM87.89-35L87.89-35Q89.29-35 90.14-34.13 90.99-33.25 90.99-31.95L90.99-31.95 90.99-3.05Q90.99-1.75 90.12-0.88 89.24 0 87.79 0L87.79 0Q86.59 0 85.67-0.88 84.74-1.75 84.74-3.05L84.74-3.05 84.74-31.95Q84.74-33.25 85.69-34.13 86.64-35 87.89-35ZM65.59-14.7L65.59-20.45 87.89-20.45 87.89-14.7 65.59-14.7ZM96.44-22.1L97.24-32.6Q97.49-35 99.84-35L99.84-35 101.39-35Q102.79-35 103.34-34.23 103.89-33.45 103.44-32.15L103.44-32.15 100.04-21.7Q99.44-20.05 97.89-20.05L97.89-20.05Q96.29-20.05 96.44-22.1L96.44-22.1ZM107.04-4.15L107.04-4.15Q106.54-4.85 106.59-5.95 106.64-7.05 107.89-7.85L107.89-7.85Q108.69-8.35 109.59-8.28 110.49-8.2 111.34-7.35L111.34-7.35Q112.79-5.9 114.39-5.1 115.99-4.3 118.39-4.3L118.39-4.3Q119.14-4.35 120.04-4.53 120.94-4.7 121.61-5.33 122.29-5.95 122.29-7.25L122.29-7.25Q122.29-8.35 121.54-9 120.79-9.65 119.56-10.1 118.34-10.55 116.84-10.95L116.84-10.95Q115.29-11.4 113.66-11.95 112.04-12.5 110.69-13.38 109.34-14.25 108.49-15.7 107.64-17.15 107.64-19.35L107.64-19.35Q107.64-21.85 109.04-23.6 110.44-25.35 112.66-26.3 114.89-27.25 117.34-27.25L117.34-27.25Q118.89-27.25 120.59-26.88 122.29-26.5 123.84-25.68 125.39-24.85 126.44-23.5L126.44-23.5Q126.99-22.75 127.09-21.7 127.19-20.65 126.14-19.8L126.14-19.8Q125.39-19.2 124.39-19.28 123.39-19.35 122.74-19.95L122.74-19.95Q121.89-21.05 120.46-21.7 119.04-22.35 117.19-22.35L117.19-22.35Q116.44-22.35 115.56-22.18 114.69-22 114.04-21.43 113.39-20.85 113.39-19.6L113.39-19.6Q113.39-18.45 114.14-17.78 114.89-17.1 116.16-16.68 117.44-16.25 118.89-15.85L118.89-15.85Q120.39-15.45 121.94-14.9 123.49-14.35 124.79-13.45 126.09-12.55 126.89-11.13 127.69-9.7 127.69-7.5L127.69-7.5Q127.69-4.95 126.19-3.15 124.69-1.35 122.44-0.43 120.19 0.5 117.84 0.5L117.84 0.5Q114.89 0.5 111.94-0.53 108.99-1.55 107.04-4.15ZM159.03 0L159.03 0Q157.63 0 156.73-0.88 155.83-1.75 155.83-3.05L155.83-3.05 155.83-32.05 162.33-32.05 162.33-3.05Q162.33-1.75 161.41-0.88 160.48 0 159.03 0ZM170.18-29.25L147.98-29.25Q146.68-29.25 145.81-30.05 144.93-30.85 144.93-32.15L144.93-32.15Q144.93-33.45 145.81-34.23 146.68-35 147.98-35L147.98-35 170.18-35Q171.48-35 172.36-34.2 173.23-33.4 173.23-32.1L173.23-32.1Q173.23-30.8 172.36-30.03 171.48-29.25 170.18-29.25L170.18-29.25ZM183.63-23.7L183.63-3.05Q183.63-1.75 182.78-0.88 181.93 0 180.63 0L180.63 0Q179.33 0 178.48-0.88 177.63-1.75 177.63-3.05L177.63-3.05 177.63-23.7Q177.63-25 178.48-25.88 179.33-26.75 180.63-26.75L180.63-26.75Q181.93-26.75 182.78-25.88 183.63-25 183.63-23.7L183.63-23.7ZM180.58-30L180.58-30Q178.88-30 178.18-30.55 177.48-31.1 177.48-32.5L177.48-32.5 177.48-33.45Q177.48-34.9 178.26-35.43 179.03-35.95 180.63-35.95L180.63-35.95Q182.38-35.95 183.08-35.4 183.78-34.85 183.78-33.45L183.78-33.45 183.78-32.5Q183.78-31.05 183.03-30.53 182.28-30 180.58-30ZM204.08-27.25L204.08-27.25Q207.78-27.25 209.7-25.7 211.63-24.15 212.35-21.58 213.08-19 213.08-15.85L213.08-15.85 213.08-3.05Q213.08-1.75 212.23-0.88 211.38 0 210.08 0L210.08 0Q208.78 0 207.93-0.88 207.08-1.75 207.08-3.05L207.08-3.05 207.08-15.85Q207.08-17.5 206.65-18.82 206.23-20.15 205.13-20.95 204.03-21.75 201.98-21.75L201.98-21.75Q199.98-21.75 198.6-20.95 197.23-20.15 196.5-18.82 195.78-17.5 195.78-15.85L195.78-15.85 195.78-3.05Q195.78-1.75 194.93-0.88 194.08 0 192.78 0L192.78 0Q191.48 0 190.63-0.88 189.78-1.75 189.78-3.05L189.78-3.05 189.78-23.7Q189.78-25 190.63-25.88 191.48-26.75 192.78-26.75L192.78-26.75Q194.08-26.75 194.93-25.88 195.78-25 195.78-23.7L195.78-23.7 195.78-21.55 195.03-21.7Q195.48-22.55 196.33-23.53 197.18-24.5 198.33-25.35 199.48-26.2 200.93-26.73 202.38-27.25 204.08-27.25ZM223.08 0L223.08 0Q221.78 0 220.93-0.88 220.08-1.75 220.08-3.05L220.08-3.05 220.08-33.95Q220.08-35.25 220.93-36.13 221.78-37 223.08-37L223.08-37Q224.38-37 225.23-36.13 226.08-35.25 226.08-33.95L226.08-33.95 226.08-3.05Q226.08-1.75 225.23-0.88 224.38 0 223.08 0ZM238.98-26.75L238.98-26.75Q240.13-26.75 240.98-25.8 241.83-24.85 241.83-23.95L241.83-23.95Q241.83-22.75 240.63-21.7L240.63-21.7 225.58-7.85 225.33-14.75 236.78-25.8Q237.73-26.75 238.98-26.75ZM239.73-0.05L239.73-0.05Q238.43-0.05 237.53-1.05L237.53-1.05 228.28-10.85 232.83-15.05 241.83-5.25Q242.78-4.25 242.78-3L242.78-3Q242.78-1.7 241.75-0.88 240.73-0.05 239.73-0.05ZM259.27 0.5L259.27 0.5Q255.02 0.5 251.9-1.28 248.77-3.05 247.1-6.1 245.42-9.15 245.42-13L245.42-13Q245.42-17.5 247.25-20.68 249.07-23.85 252.02-25.55 254.97-27.25 258.27-27.25L258.27-27.25Q260.82-27.25 263.1-26.2 265.37-25.15 267.12-23.33 268.87-21.5 269.9-19.1 270.92-16.7 270.92-14L270.92-14Q270.87-12.8 269.97-12.05 269.07-11.3 267.87-11.3L267.87-11.3 248.77-11.3 247.27-16.3 265.62-16.3 264.52-15.3 264.52-16.65Q264.42-18.1 263.5-19.25 262.57-20.4 261.2-21.08 259.82-21.75 258.27-21.75L258.27-21.75Q256.77-21.75 255.47-21.35 254.17-20.95 253.22-20 252.27-19.05 251.72-17.45 251.17-15.85 251.17-13.4L251.17-13.4Q251.17-10.7 252.3-8.83 253.42-6.95 255.2-5.98 256.97-5 258.97-5L258.97-5Q260.82-5 261.92-5.3 263.02-5.6 263.7-6.03 264.37-6.45 264.92-6.75L264.92-6.75Q265.82-7.2 266.62-7.2L266.62-7.2Q267.72-7.2 268.45-6.45 269.17-5.7 269.17-4.7L269.17-4.7Q269.17-3.35 267.77-2.25L267.77-2.25Q266.47-1.15 264.12-0.33 261.77 0.5 259.27 0.5ZM278.92 0L278.92 0Q277.62 0 276.77-0.88 275.92-1.75 275.92-3.05L275.92-3.05 275.92-23.7Q275.92-25 276.77-25.88 277.62-26.75 278.92-26.75L278.92-26.75Q280.22-26.75 281.07-25.88 281.92-25 281.92-23.7L281.92-23.7 281.92-19 281.57-22.35Q282.12-23.55 283-24.48 283.87-25.4 284.97-26.03 286.07-26.65 287.32-26.95 288.57-27.25 289.82-27.25L289.82-27.25Q291.32-27.25 292.35-26.4 293.37-25.55 293.37-24.4L293.37-24.4Q293.37-22.75 292.52-22.03 291.67-21.3 290.67-21.3L290.67-21.3Q289.72-21.3 288.94-21.65 288.17-22 287.17-22L287.17-22Q286.27-22 285.35-21.58 284.42-21.15 283.65-20.25 282.87-19.35 282.4-18.03 281.92-16.7 281.92-14.9L281.92-14.9 281.92-3.05Q281.92-1.75 281.07-0.88 280.22 0 278.92 0ZM308.87 0.5L308.87 0.5Q304.62 0.5 301.49-1.28 298.37-3.05 296.69-6.1 295.02-9.15 295.02-13L295.02-13Q295.02-17.5 296.84-20.68 298.67-23.85 301.62-25.55 304.57-27.25 307.87-27.25L307.87-27.25Q310.42-27.25 312.69-26.2 314.97-25.15 316.72-23.33 318.47-21.5 319.49-19.1 320.52-16.7 320.52-14L320.52-14Q320.47-12.8 319.57-12.05 318.67-11.3 317.47-11.3L317.47-11.3 298.37-11.3 296.87-16.3 315.22-16.3 314.12-15.3 314.12-16.65Q314.02-18.1 313.09-19.25 312.17-20.4 310.79-21.08 309.42-21.75 307.87-21.75L307.87-21.75Q306.37-21.75 305.07-21.35 303.77-20.95 302.82-20 301.87-19.05 301.32-17.45 300.77-15.85 300.77-13.4L300.77-13.4Q300.77-10.7 301.89-8.83 303.02-6.95 304.79-5.98 306.57-5 308.57-5L308.57-5Q310.42-5 311.52-5.3 312.62-5.6 313.29-6.03 313.97-6.45 314.52-6.75L314.52-6.75Q315.42-7.2 316.22-7.2L316.22-7.2Q317.32-7.2 318.04-6.45 318.77-5.7 318.77-4.7L318.77-4.7Q318.77-3.35 317.37-2.25L317.37-2.25Q316.07-1.15 313.72-0.33 311.37 0.5 308.87 0.5ZM328.51 0L328.51 0Q327.21 0 326.37-0.88 325.51-1.75 325.51-3.05L325.51-3.05 325.51-23.7Q325.51-25 326.37-25.88 327.21-26.75 328.51-26.75L328.51-26.75Q329.81-26.75 330.66-25.88 331.51-25 331.51-23.7L331.51-23.7 331.51-19 331.16-22.35Q331.71-23.55 332.59-24.48 333.46-25.4 334.56-26.03 335.66-26.65 336.91-26.95 338.16-27.25 339.41-27.25L339.41-27.25Q340.91-27.25 341.94-26.4 342.96-25.55 342.96-24.4L342.96-24.4Q342.96-22.75 342.12-22.03 341.26-21.3 340.26-21.3L340.26-21.3Q339.31-21.3 338.54-21.65 337.76-22 336.76-22L336.76-22Q335.87-22 334.94-21.58 334.01-21.15 333.24-20.25 332.46-19.35 331.99-18.03 331.51-16.7 331.51-14.9L331.51-14.9 331.51-3.05Q331.51-1.75 330.66-0.88 329.81 0 328.51 0ZM345.66-22.1L346.46-32.6Q346.71-35 349.06-35L349.06-35 350.61-35Q352.01-35 352.56-34.23 353.11-33.45 352.66-32.15L352.66-32.15 349.26-21.7Q348.66-20.05 347.11-20.05L347.11-20.05Q345.51-20.05 345.66-22.1L345.66-22.1ZM356.26-4.15L356.26-4.15Q355.76-4.85 355.81-5.95 355.86-7.05 357.11-7.85L357.11-7.85Q357.91-8.35 358.81-8.28 359.71-8.2 360.56-7.35L360.56-7.35Q362.01-5.9 363.61-5.1 365.21-4.3 367.61-4.3L367.61-4.3Q368.36-4.35 369.26-4.53 370.16-4.7 370.83-5.33 371.51-5.95 371.51-7.25L371.51-7.25Q371.51-8.35 370.76-9 370.01-9.65 368.79-10.1 367.56-10.55 366.06-10.95L366.06-10.95Q364.51-11.4 362.88-11.95 361.26-12.5 359.91-13.38 358.56-14.25 357.71-15.7 356.86-17.15 356.86-19.35L356.86-19.35Q356.86-21.85 358.26-23.6 359.66-25.35 361.88-26.3 364.11-27.25 366.56-27.25L366.56-27.25Q368.11-27.25 369.81-26.88 371.51-26.5 373.06-25.68 374.61-24.85 375.66-23.5L375.66-23.5Q376.21-22.75 376.31-21.7 376.41-20.65 375.36-19.8L375.36-19.8Q374.61-19.2 373.61-19.28 372.61-19.35 371.96-19.95L371.96-19.95Q371.11-21.05 369.69-21.7 368.26-22.35 366.41-22.35L366.41-22.35Q365.66-22.35 364.79-22.18 363.91-22 363.26-21.43 362.61-20.85 362.61-19.6L362.61-19.6Q362.61-18.45 363.36-17.78 364.11-17.1 365.38-16.68 366.66-16.25 368.11-15.85L368.11-15.85Q369.61-15.45 371.16-14.9 372.71-14.35 374.01-13.45 375.31-12.55 376.11-11.13 376.91-9.7 376.91-7.5L376.91-7.5Q376.91-4.95 375.41-3.15 373.91-1.35 371.66-0.43 369.41 0.5 367.06 0.5L367.06 0.5Q364.11 0.5 361.16-0.53 358.21-1.55 356.26-4.15ZM401.56-5.85L415.71-5.85Q417.01-5.85 417.88-5.03 418.76-4.2 418.76-2.9L418.76-2.9Q418.76-1.65 417.88-0.83 417.01 0 415.71 0L415.71 0 399.46 0Q398.16 0 397.28-0.88 396.41-1.75 396.41-3.05L396.41-3.05 396.41-31.95Q396.41-33.25 397.31-34.13 398.21-35 399.61-35L399.61-35Q400.81-35 401.73-34.13 402.66-33.25 402.66-31.95L402.66-31.95 402.66-5 401.56-5.85ZM445.65-27.25L445.65-27.25Q446.95-27.25 447.8-26.4 448.65-25.55 448.65-24.2L448.65-24.2 448.65-3.05Q448.65-1.75 447.8-0.88 446.95 0 445.65 0L445.65 0Q444.35 0 443.5-0.88 442.65-1.75 442.65-3.05L442.65-3.05 442.65-5.5 443.75-5.05Q443.75-4.4 443.05-3.48 442.35-2.55 441.15-1.65 439.95-0.75 438.33-0.13 436.7 0.5 434.8 0.5L434.8 0.5Q431.35 0.5 428.55-1.28 425.75-3.05 424.13-6.18 422.5-9.3 422.5-13.35L422.5-13.35Q422.5-17.45 424.13-20.58 425.75-23.7 428.5-25.48 431.25-27.25 434.6-27.25L434.6-27.25Q436.75-27.25 438.55-26.6 440.35-25.95 441.68-24.95 443-23.95 443.73-22.93 444.45-21.9 444.45-21.2L444.45-21.2 442.65-20.55 442.65-24.2Q442.65-25.5 443.5-26.38 444.35-27.25 445.65-27.25ZM435.55-5L435.55-5Q437.75-5 439.4-6.1 441.05-7.2 441.98-9.1 442.9-11 442.9-13.35L442.9-13.35Q442.9-15.75 441.98-17.65 441.05-19.55 439.4-20.65 437.75-21.75 435.55-21.75L435.55-21.75Q433.4-21.75 431.75-20.65 430.1-19.55 429.18-17.65 428.25-15.75 428.25-13.35L428.25-13.35Q428.25-11 429.18-9.1 430.1-7.2 431.75-6.1 433.4-5 435.55-5ZM469-27.25L469-27.25Q472.5-27.25 475.28-25.48 478.05-23.7 479.68-20.6 481.3-17.5 481.3-13.4L481.3-13.4Q481.3-9.3 479.68-6.18 478.05-3.05 475.33-1.28 472.6 0.5 469.2 0.5L469.2 0.5Q467.2 0.5 465.45-0.15 463.7-0.8 462.38-1.8 461.05-2.8 460.33-3.83 459.6-4.85 459.6-5.55L459.6-5.55 461.15-6.2 461.15-2.55Q461.15-1.25 460.3-0.38 459.45 0.5 458.15 0.5L458.15 0.5Q456.85 0.5 456-0.35 455.15-1.2 455.15-2.55L455.15-2.55 455.15-33.95Q455.15-35.25 456-36.13 456.85-37 458.15-37L458.15-37Q459.45-37 460.3-36.13 461.15-35.25 461.15-33.95L461.15-33.95 461.15-21.25 460.3-21.7Q460.3-22.35 461-23.28 461.7-24.2 462.9-25.13 464.1-26.05 465.68-26.65 467.25-27.25 469-27.25ZM468.25-21.75L468.25-21.75Q466.05-21.75 464.4-20.65 462.75-19.55 461.83-17.68 460.9-15.8 460.9-13.4L460.9-13.4Q460.9-11.05 461.83-9.13 462.75-7.2 464.4-6.1 466.05-5 468.25-5L468.25-5Q470.45-5 472.08-6.1 473.7-7.2 474.63-9.13 475.55-11.05 475.55-13.4L475.55-13.4Q475.55-15.8 474.63-17.68 473.7-19.55 472.08-20.65 470.45-21.75 468.25-21.75Z" opacity="1" transform="matrix(1,0,0,1,0,0)" fill="#ffffff" class="wordmark-text-0" data-fill-palette-color="primary" id="text-0"></path></svg></g></svg></g></svg></g></svg></g><g transform="matrix(1,0,0,1,399.95877105824445,0)"><svg viewBox="0 0 106.36380652158552 106.4967612797375" height="106.4967612797375" width="106.36380652158552"><g><svg xmlns="http://www.w3.org/2000/svg" xmlns:xlink="http://www.w3.org/1999/xlink" version="1.1" x="0" y="0" viewBox="4.3999999999999915 4.899999999999999 80 80.1" enable-background="new 0 0 90 90" xml:space="preserve" height="106.4967612797375" width="106.36380652158552" class="icon-icon-0" data-fill-palette-color="accent" id="icon-0"><path d="M81.6 59.6c0-0.1 0-0.1 0.1-0.2 1.6-4.2 2.6-8.8 2.7-13.6 0 0 0 0 0 0l0 0c0-0.3 0-0.6 0-0.9 0-22.1-17.9-40-40-40s-40 17.9-40 40c0 4.6 0.8 9 2.2 13.1l0 0c0 0 0 0 0 0C12 73.7 26.9 85 44.4 85c16.1 0 30-9.6 36.4-23.3 0-0.1 0.1-0.1 0.1-0.2C81.1 60.9 81.4 60.3 81.6 59.6zM77.9 45.9v-1.1h-1.1v1.1h-2.5v-1.1h-1.1v1.1h-2.5v-1.1h-1.1v1.1h-2.9v2.9H48.4v-4.7H56 57V43v-2.6c0.7-0.2 1.3-0.7 1.6-1.4h17.9c0.3 1.2 1.3 2.2 2.5 2.4 0.1 1.2 0.2 2.3 0.2 3.5 0 0.3 0 0.6 0 0.9H77.9zM44.4 10.1c15.9 0 29.3 10.7 33.5 25.2-0.1 0.1-0.2 0.1-0.3 0.2l-6.9-6.7v-0.3h-0.3l0 0 0 0H48.8V22h-5.4v6.5h-2.5V22h-5.4v6.5h-2.5V22h-5.4v6.5h-5.1c-0.2-1-1.2-1.8-2.3-1.8-1.3 0-2.3 1.1-2.3 2.4 0 1.1 0.8 2 1.8 2.3v2.2 1.1h1.1 18.8c0.2 1 1.2 1.8 2.3 1.8 1.3 0 2.3-1.1 2.3-2.4s-1-2.4-2.3-2.4c-1.1 0-2 0.8-2.3 1.8H20.7v-2.2c0.9-0.2 1.5-0.9 1.7-1.7h31.4V32h13.3v-2.4H70l7 6.7c-0.3 0.5-0.5 1-0.5 1.6H58.8c-0.1-1.2-1.1-2.2-2.3-2.2-1.3 0-2.3 1.1-2.3 2.4 0 1.1 0.8 2 1.8 2.3V43H38.3c-0.3-3.6-3.3-6.5-7-6.5-3.7 0-6.7 2.9-7 6.5h-1.8v-1.4-0.4-0.7h-3.6v-1.8h-8.6v4h8.6v-1.1h2.5V43v1.1 1.8h-2.5v-1.1h-8.6v4h8.6V47h3.6v-1.1-1.8h1.8c0.3 3.6 3.3 6.5 7 6.5 3.7 0 6.7-2.9 7-6.5h9v4.7 1.1h1.1 18.3v4.3H44.1C44 52.4 42.5 51 40.7 51c-1.8 0-3.3 1.4-3.4 3.2H23.9c-0.2-1-1.2-1.8-2.3-1.8-1.3 0-2.3 1.1-2.3 2.4s1 2.4 2.3 2.4c1.1 0 2-0.8 2.3-1.8h13.5c0.4 1.5 1.7 2.5 3.3 2.5 1.6 0 2.9-1.1 3.3-2.5h7v2h2.5v-2h13.3v4.3h-54c-2.1-4.5-3.2-9.4-3.2-14.7C9.5 25.7 25.1 10.1 44.4 10.1zM44.4 79.9c-13.6 0-25.4-7.8-31.1-19.2h29.4v6.4H48v-6.4h2.2v6.4h5.4v-6.4h2.2v6.4h5.4v-6.4h3.6v2.9h2.9v1.1h1.1v-1.1h2.5v1C66.9 73.8 56.4 79.9 44.4 79.9z" fill="#ffffff" data-fill-palette-color="accent"></path></svg></g></svg></g></svg></g></svg></g></svg></g></svg></g><defs></defs></svg><rect width="395.52" height="247.2" fill="none" stroke="none" visibility="hidden"></rect></g></svg></g></svg>